<svg width="748" height="98" viewBox="0 0 748 98" fill="none" xmlns="http://www.w3.org/2000/svg">
<g filter="url(#filter0_f_5246_9093)">
<path d="M266.264 45.0827C266.264 50.0524 265.355 54.3252 263.537 57.9009C261.719 61.4615 259.226 64.204 256.06 66.1282C252.908 68.0373 249.325 68.9918 245.31 68.9918C241.279 68.9918 237.681 68.0373 234.514 66.1282C231.363 64.204 228.878 61.454 227.06 57.8782C225.241 54.3024 224.332 50.0373 224.332 45.0827C224.332 40.113 225.241 35.8479 227.06 32.2873C228.878 28.7115 231.363 25.9691 234.514 24.06C237.681 22.1358 241.279 21.1736 245.31 21.1736C249.325 21.1736 252.908 22.1358 256.06 24.06C259.226 25.9691 261.719 28.7115 263.537 32.2873C265.355 35.8479 266.264 40.113 266.264 45.0827ZM259.31 45.0827C259.31 41.2949 258.696 38.1055 257.469 35.5146C256.256 32.9085 254.59 30.9388 252.469 29.6055C250.363 28.257 247.976 27.5827 245.31 27.5827C242.628 27.5827 240.234 28.257 238.128 29.6055C236.022 30.9388 234.355 32.9085 233.128 35.5146C231.916 38.1055 231.31 41.2949 231.31 45.0827C231.31 48.8706 231.916 52.0676 233.128 54.6736C234.355 57.2646 236.022 59.2343 238.128 60.5827C240.234 61.9161 242.628 62.5827 245.31 62.5827C247.976 62.5827 250.363 61.9161 252.469 60.5827C254.59 59.2343 256.256 57.2646 257.469 54.6736C258.696 52.0676 259.31 48.8706 259.31 45.0827ZM296.588 53.8782V33.4464H303.406V68.3555H296.724V62.31H296.361C295.558 64.1737 294.27 65.7267 292.497 66.9691C290.739 68.1964 288.55 68.81 285.929 68.81C283.686 68.81 281.702 68.3176 279.974 67.3327C278.262 66.3327 276.914 64.8555 275.929 62.9009C274.959 60.9464 274.474 58.5297 274.474 55.6509V33.4464H281.27V54.8327C281.27 57.2115 281.929 59.1055 283.247 60.5146C284.565 61.9237 286.277 62.6282 288.383 62.6282C289.656 62.6282 290.921 62.31 292.179 61.6737C293.452 61.0373 294.505 60.0752 295.338 58.7873C296.186 57.4994 296.603 55.863 296.588 53.8782ZM312.537 68.3555V33.4464H319.105V38.9918H319.469C320.105 37.113 321.226 35.6358 322.832 34.56C324.453 33.4691 326.287 32.9236 328.332 32.9236C328.756 32.9236 329.256 32.9388 329.832 32.9691C330.423 32.9994 330.885 33.0373 331.219 33.0827V39.5827C330.946 39.507 330.461 39.4237 329.764 39.3327C329.067 39.2267 328.37 39.1736 327.673 39.1736C326.067 39.1736 324.635 39.5146 323.378 40.1964C322.135 40.863 321.15 41.7949 320.423 42.9918C319.696 44.1736 319.332 45.5221 319.332 47.0373V68.3555H312.537ZM348.406 52.4727H358.797C359.193 55.4414 360.331 57.5195 362.211 58.707C364.19 60.0924 366.911 60.7852 370.375 60.7852C373.443 60.7852 375.768 60.2409 377.351 59.1523C378.935 58.0638 379.726 56.4805 379.726 54.4023C379.726 51.2357 375.273 48.6628 366.367 46.6836L366.07 46.5352C366.07 46.5352 365.674 46.4362 364.883 46.2383C359.836 45.1497 356.471 44.0117 354.789 42.8242C352.81 41.7357 351.424 40.1523 350.633 38.0742C349.643 36.293 349.148 34.0169 349.148 31.2461C349.148 26.3971 350.831 22.5872 354.195 19.8164C357.56 17.1445 362.458 15.8086 368.89 15.8086C374.927 15.8086 379.578 17.194 382.844 19.9648C386.208 23.0326 387.989 27.0404 388.187 31.9883H382.25C379.974 31.9883 378.341 30.9492 377.351 28.8711C376.857 27.8815 376.164 27.0404 375.273 26.3477C373.492 25.0612 371.068 24.418 368 24.418C365.031 24.418 362.903 24.9622 361.617 26.0508C360.133 27.1393 359.39 28.6732 359.39 30.6523C359.39 33.3242 362.26 35.3034 368 36.5898C369.682 37.0846 370.919 37.3815 371.711 37.4805C373.492 38.0742 375.026 38.569 376.312 38.9648C377.698 39.2617 378.786 39.5091 379.578 39.707C380.963 40.3008 382.349 40.8945 383.734 41.4883C385.713 42.6758 387.247 44.2096 388.336 46.0898C389.424 48.168 389.969 50.444 389.969 52.918C389.969 58.2617 388.187 62.418 384.625 65.3867C381.062 68.1576 376.015 69.543 369.484 69.543C362.755 69.543 357.708 68.1081 354.344 65.2383C350.682 62.3685 348.703 58.1133 348.406 52.4727ZM409.562 68.3555C406.297 68.5534 402.734 68.5039 398.875 68.207C395.114 67.9102 393.234 65.4857 393.234 60.9336V17.293H398.578C399.864 17.293 401.002 17.7878 401.992 18.7773C402.982 19.7669 403.476 20.9544 403.476 22.3398V29.0195H409.562V31.0977C409.562 32.582 409.068 33.819 408.078 34.8086C407.088 35.6992 405.901 36.1445 404.515 36.1445H403.476V58.1133C403.476 59.7956 404.466 60.6367 406.445 60.6367H409.562V68.3555ZM415.351 64.793C413.273 63.0117 411.789 60.6367 410.898 57.668C410.008 54.6003 409.562 51.4336 409.562 48.168C409.562 45.4961 409.909 42.8242 410.601 40.1523C411.393 37.4805 412.581 35.2539 414.164 33.4727C416.737 30.5039 420.052 28.7721 424.109 28.2773C428.167 27.6836 431.828 27.9805 435.094 29.168C438.854 30.6523 441.625 33.2253 443.406 36.8867C445.088 40.1523 445.93 43.9622 445.93 48.3164C445.93 51.4831 445.583 54.2044 444.89 56.4805C444.198 58.7565 443.307 60.6862 442.219 62.2695C439.844 65.5352 436.825 67.5638 433.164 68.3555C429.898 69.2461 426.583 69.2956 423.219 68.5039C419.953 67.8112 417.331 66.5742 415.351 64.793ZM422.476 38.668C420.398 40.944 419.458 44.3581 419.656 48.9102C419.854 53.3633 420.695 56.4805 422.18 58.2617C422.773 59.0534 423.812 59.7461 425.297 60.3398C426.781 60.8346 428.265 60.8841 429.75 60.4883C431.333 59.9935 432.719 58.8555 433.906 57.0742C435.094 55.293 435.737 52.4232 435.836 48.4648C435.836 44.9023 435.242 42.2305 434.055 40.4492C432.966 38.668 431.68 37.5299 430.195 37.0352C428.711 36.5404 427.226 36.5404 425.742 37.0352C424.258 37.431 423.169 37.9753 422.476 38.668ZM447.562 68.3555V49.207C447.562 45.3477 448.107 42.1315 449.195 39.5586C450.383 36.8867 451.966 34.7591 453.945 33.1758C455.825 31.6914 458.002 30.6029 460.476 29.9102C463.049 29.2174 465.672 28.8711 468.344 28.8711C468.542 28.8711 468.789 28.8711 469.086 28.8711C469.383 28.8711 469.63 28.8711 469.828 28.8711V39.4102H466.414C463.544 39.4102 461.417 40.1029 460.031 41.4883C458.646 42.8737 457.953 45.0508 457.953 48.0195V68.3555H447.562ZM476.508 82.3086V74.1445H479.328C481.307 74.1445 482.841 73.6497 483.93 72.6602C485.117 71.7695 485.364 70.2852 484.672 68.207L470.867 28.8711H482.297L490.312 56.7773L497.289 32.4336C497.883 30.0586 499.466 28.8711 502.039 28.8711H509.164L494.023 73.8477C492.836 77.1133 491.351 79.4388 489.57 80.8242C487.789 82.0117 484.87 82.6055 480.812 82.6055C480.515 82.6055 480.169 82.6055 479.773 82.6055C479.377 82.6055 479.031 82.6055 478.734 82.6055C478.437 82.5065 478.042 82.4076 477.547 82.3086C477.151 82.3086 476.805 82.3086 476.508 82.3086Z" fill="url(#paint0_linear_5246_9093)"/>
</g>
<g filter="url(#filter1_f_5246_9093)">
<path d="M266.264 45.0827C266.264 50.0524 265.355 54.3252 263.537 57.9009C261.719 61.4615 259.226 64.204 256.06 66.1282C252.908 68.0373 249.325 68.9918 245.31 68.9918C241.279 68.9918 237.681 68.0373 234.514 66.1282C231.363 64.204 228.878 61.454 227.06 57.8782C225.241 54.3024 224.332 50.0373 224.332 45.0827C224.332 40.113 225.241 35.8479 227.06 32.2873C228.878 28.7115 231.363 25.9691 234.514 24.06C237.681 22.1358 241.279 21.1736 245.31 21.1736C249.325 21.1736 252.908 22.1358 256.06 24.06C259.226 25.9691 261.719 28.7115 263.537 32.2873C265.355 35.8479 266.264 40.113 266.264 45.0827ZM259.31 45.0827C259.31 41.2949 258.696 38.1055 257.469 35.5146C256.256 32.9085 254.59 30.9388 252.469 29.6055C250.363 28.257 247.976 27.5827 245.31 27.5827C242.628 27.5827 240.234 28.257 238.128 29.6055C236.022 30.9388 234.355 32.9085 233.128 35.5146C231.916 38.1055 231.31 41.2949 231.31 45.0827C231.31 48.8706 231.916 52.0676 233.128 54.6736C234.355 57.2646 236.022 59.2343 238.128 60.5827C240.234 61.9161 242.628 62.5827 245.31 62.5827C247.976 62.5827 250.363 61.9161 252.469 60.5827C254.59 59.2343 256.256 57.2646 257.469 54.6736C258.696 52.0676 259.31 48.8706 259.31 45.0827ZM296.588 53.8782V33.4464H303.406V68.3555H296.724V62.31H296.361C295.558 64.1737 294.27 65.7267 292.497 66.9691C290.739 68.1964 288.55 68.81 285.929 68.81C283.686 68.81 281.702 68.3176 279.974 67.3327C278.262 66.3327 276.914 64.8555 275.929 62.9009C274.959 60.9464 274.474 58.5297 274.474 55.6509V33.4464H281.27V54.8327C281.27 57.2115 281.929 59.1055 283.247 60.5146C284.565 61.9237 286.277 62.6282 288.383 62.6282C289.656 62.6282 290.921 62.31 292.179 61.6737C293.452 61.0373 294.505 60.0752 295.338 58.7873C296.186 57.4994 296.603 55.863 296.588 53.8782ZM312.537 68.3555V33.4464H319.105V38.9918H319.469C320.105 37.113 321.226 35.6358 322.832 34.56C324.453 33.4691 326.287 32.9236 328.332 32.9236C328.756 32.9236 329.256 32.9388 329.832 32.9691C330.423 32.9994 330.885 33.0373 331.219 33.0827V39.5827C330.946 39.507 330.461 39.4237 329.764 39.3327C329.067 39.2267 328.37 39.1736 327.673 39.1736C326.067 39.1736 324.635 39.5146 323.378 40.1964C322.135 40.863 321.15 41.7949 320.423 42.9918C319.696 44.1736 319.332 45.5221 319.332 47.0373V68.3555H312.537ZM348.406 52.4727H358.797C359.193 55.4414 360.331 57.5195 362.211 58.707C364.19 60.0924 366.911 60.7852 370.375 60.7852C373.443 60.7852 375.768 60.2409 377.351 59.1523C378.935 58.0638 379.726 56.4805 379.726 54.4023C379.726 51.2357 375.273 48.6628 366.367 46.6836L366.07 46.5352C366.07 46.5352 365.674 46.4362 364.883 46.2383C359.836 45.1497 356.471 44.0117 354.789 42.8242C352.81 41.7357 351.424 40.1523 350.633 38.0742C349.643 36.293 349.148 34.0169 349.148 31.2461C349.148 26.3971 350.831 22.5872 354.195 19.8164C357.56 17.1445 362.458 15.8086 368.89 15.8086C374.927 15.8086 379.578 17.194 382.844 19.9648C386.208 23.0326 387.989 27.0404 388.187 31.9883H382.25C379.974 31.9883 378.341 30.9492 377.351 28.8711C376.857 27.8815 376.164 27.0404 375.273 26.3477C373.492 25.0612 371.068 24.418 368 24.418C365.031 24.418 362.903 24.9622 361.617 26.0508C360.133 27.1393 359.39 28.6732 359.39 30.6523C359.39 33.3242 362.26 35.3034 368 36.5898C369.682 37.0846 370.919 37.3815 371.711 37.4805C373.492 38.0742 375.026 38.569 376.312 38.9648C377.698 39.2617 378.786 39.5091 379.578 39.707C380.963 40.3008 382.349 40.8945 383.734 41.4883C385.713 42.6758 387.247 44.2096 388.336 46.0898C389.424 48.168 389.969 50.444 389.969 52.918C389.969 58.2617 388.187 62.418 384.625 65.3867C381.062 68.1576 376.015 69.543 369.484 69.543C362.755 69.543 357.708 68.1081 354.344 65.2383C350.682 62.3685 348.703 58.1133 348.406 52.4727ZM409.562 68.3555C406.297 68.5534 402.734 68.5039 398.875 68.207C395.114 67.9102 393.234 65.4857 393.234 60.9336V17.293H398.578C399.864 17.293 401.002 17.7878 401.992 18.7773C402.982 19.7669 403.476 20.9544 403.476 22.3398V29.0195H409.562V31.0977C409.562 32.582 409.068 33.819 408.078 34.8086C407.088 35.6992 405.901 36.1445 404.515 36.1445H403.476V58.1133C403.476 59.7956 404.466 60.6367 406.445 60.6367H409.562V68.3555ZM415.351 64.793C413.273 63.0117 411.789 60.6367 410.898 57.668C410.008 54.6003 409.562 51.4336 409.562 48.168C409.562 45.4961 409.909 42.8242 410.601 40.1523C411.393 37.4805 412.581 35.2539 414.164 33.4727C416.737 30.5039 420.052 28.7721 424.109 28.2773C428.167 27.6836 431.828 27.9805 435.094 29.168C438.854 30.6523 441.625 33.2253 443.406 36.8867C445.088 40.1523 445.93 43.9622 445.93 48.3164C445.93 51.4831 445.583 54.2044 444.89 56.4805C444.198 58.7565 443.307 60.6862 442.219 62.2695C439.844 65.5352 436.825 67.5638 433.164 68.3555C429.898 69.2461 426.583 69.2956 423.219 68.5039C419.953 67.8112 417.331 66.5742 415.351 64.793ZM422.476 38.668C420.398 40.944 419.458 44.3581 419.656 48.9102C419.854 53.3633 420.695 56.4805 422.18 58.2617C422.773 59.0534 423.812 59.7461 425.297 60.3398C426.781 60.8346 428.265 60.8841 429.75 60.4883C431.333 59.9935 432.719 58.8555 433.906 57.0742C435.094 55.293 435.737 52.4232 435.836 48.4648C435.836 44.9023 435.242 42.2305 434.055 40.4492C432.966 38.668 431.68 37.5299 430.195 37.0352C428.711 36.5404 427.226 36.5404 425.742 37.0352C424.258 37.431 423.169 37.9753 422.476 38.668ZM447.562 68.3555V49.207C447.562 45.3477 448.107 42.1315 449.195 39.5586C450.383 36.8867 451.966 34.7591 453.945 33.1758C455.825 31.6914 458.002 30.6029 460.476 29.9102C463.049 29.2174 465.672 28.8711 468.344 28.8711C468.542 28.8711 468.789 28.8711 469.086 28.8711C469.383 28.8711 469.63 28.8711 469.828 28.8711V39.4102H466.414C463.544 39.4102 461.417 40.1029 460.031 41.4883C458.646 42.8737 457.953 45.0508 457.953 48.0195V68.3555H447.562ZM476.508 82.3086V74.1445H479.328C481.307 74.1445 482.841 73.6497 483.93 72.6602C485.117 71.7695 485.364 70.2852 484.672 68.207L470.867 28.8711H482.297L490.312 56.7773L497.289 32.4336C497.883 30.0586 499.466 28.8711 502.039 28.8711H509.164L494.023 73.8477C492.836 77.1133 491.351 79.4388 489.57 80.8242C487.789 82.0117 484.87 82.6055 480.812 82.6055C480.515 82.6055 480.169 82.6055 479.773 82.6055C479.377 82.6055 479.031 82.6055 478.734 82.6055C478.437 82.5065 478.042 82.4076 477.547 82.3086C477.151 82.3086 476.805 82.3086 476.508 82.3086Z" fill="url(#paint1_linear_5246_9093)"/>
</g>
<path d="M266.264 45.0827C266.264 50.0524 265.355 54.3252 263.537 57.9009C261.719 61.4615 259.226 64.204 256.06 66.1282C252.908 68.0373 249.325 68.9918 245.31 68.9918C241.279 68.9918 237.681 68.0373 234.514 66.1282C231.363 64.204 228.878 61.454 227.06 57.8782C225.241 54.3024 224.332 50.0373 224.332 45.0827C224.332 40.113 225.241 35.8479 227.06 32.2873C228.878 28.7115 231.363 25.9691 234.514 24.06C237.681 22.1358 241.279 21.1736 245.31 21.1736C249.325 21.1736 252.908 22.1358 256.06 24.06C259.226 25.9691 261.719 28.7115 263.537 32.2873C265.355 35.8479 266.264 40.113 266.264 45.0827ZM259.31 45.0827C259.31 41.2949 258.696 38.1055 257.469 35.5146C256.256 32.9085 254.59 30.9388 252.469 29.6055C250.363 28.257 247.976 27.5827 245.31 27.5827C242.628 27.5827 240.234 28.257 238.128 29.6055C236.022 30.9388 234.355 32.9085 233.128 35.5146C231.916 38.1055 231.31 41.2949 231.31 45.0827C231.31 48.8706 231.916 52.0676 233.128 54.6736C234.355 57.2646 236.022 59.2343 238.128 60.5827C240.234 61.9161 242.628 62.5827 245.31 62.5827C247.976 62.5827 250.363 61.9161 252.469 60.5827C254.59 59.2343 256.256 57.2646 257.469 54.6736C258.696 52.0676 259.31 48.8706 259.31 45.0827ZM296.588 53.8782V33.4464H303.406V68.3555H296.724V62.31H296.361C295.558 64.1737 294.27 65.7267 292.497 66.9691C290.739 68.1964 288.55 68.81 285.929 68.81C283.686 68.81 281.702 68.3176 279.974 67.3327C278.262 66.3327 276.914 64.8555 275.929 62.9009C274.959 60.9464 274.474 58.5297 274.474 55.6509V33.4464H281.27V54.8327C281.27 57.2115 281.929 59.1055 283.247 60.5146C284.565 61.9237 286.277 62.6282 288.383 62.6282C289.656 62.6282 290.921 62.31 292.179 61.6737C293.452 61.0373 294.505 60.0752 295.338 58.7873C296.186 57.4994 296.603 55.863 296.588 53.8782ZM312.537 68.3555V33.4464H319.105V38.9918H319.469C320.105 37.113 321.226 35.6358 322.832 34.56C324.453 33.4691 326.287 32.9236 328.332 32.9236C328.756 32.9236 329.256 32.9388 329.832 32.9691C330.423 32.9994 330.885 33.0373 331.219 33.0827V39.5827C330.946 39.507 330.461 39.4237 329.764 39.3327C329.067 39.2267 328.37 39.1736 327.673 39.1736C326.067 39.1736 324.635 39.5146 323.378 40.1964C322.135 40.863 321.15 41.7949 320.423 42.9918C319.696 44.1736 319.332 45.5221 319.332 47.0373V68.3555H312.537Z" fill="#F2E1FF"/>
<path d="M348.406 52.4727H358.797C359.193 55.4414 360.331 57.5195 362.211 58.707C364.19 60.0924 366.911 60.7852 370.375 60.7852C373.443 60.7852 375.768 60.2409 377.351 59.1523C378.935 58.0638 379.726 56.4805 379.726 54.4023C379.726 51.2357 375.273 48.6628 366.367 46.6836L366.07 46.5352C366.07 46.5352 365.674 46.4362 364.883 46.2383C359.836 45.1497 356.471 44.0117 354.789 42.8242C352.81 41.7357 351.424 40.1523 350.633 38.0742C349.643 36.293 349.148 34.0169 349.148 31.2461C349.148 26.3971 350.831 22.5872 354.195 19.8164C357.56 17.1445 362.458 15.8086 368.89 15.8086C374.927 15.8086 379.578 17.194 382.844 19.9648C386.208 23.0326 387.989 27.0404 388.187 31.9883H382.25C379.974 31.9883 378.341 30.9492 377.351 28.8711C376.857 27.8815 376.164 27.0404 375.273 26.3477C373.492 25.0612 371.068 24.418 368 24.418C365.031 24.418 362.903 24.9622 361.617 26.0508C360.133 27.1393 359.39 28.6732 359.39 30.6523C359.39 33.3242 362.26 35.3034 368 36.5898C369.682 37.0846 370.919 37.3815 371.711 37.4805C373.492 38.0742 375.026 38.569 376.312 38.9648C377.698 39.2617 378.786 39.5091 379.578 39.707C380.963 40.3008 382.349 40.8945 383.734 41.4883C385.713 42.6758 387.247 44.2096 388.336 46.0898C389.424 48.168 389.969 50.444 389.969 52.918C389.969 58.2617 388.187 62.418 384.625 65.3867C381.062 68.1576 376.015 69.543 369.484 69.543C362.755 69.543 357.708 68.1081 354.344 65.2383C350.682 62.3685 348.703 58.1133 348.406 52.4727ZM409.562 68.3555C406.297 68.5534 402.734 68.5039 398.875 68.207C395.114 67.9102 393.234 65.4857 393.234 60.9336V17.293H398.578C399.864 17.293 401.002 17.7878 401.992 18.7773C402.982 19.7669 403.476 20.9544 403.476 22.3398V29.0195H409.562V31.0977C409.562 32.582 409.068 33.819 408.078 34.8086C407.088 35.6992 405.901 36.1445 404.515 36.1445H403.476V58.1133C403.476 59.7956 404.466 60.6367 406.445 60.6367H409.562V68.3555ZM415.351 64.793C413.273 63.0117 411.789 60.6367 410.898 57.668C410.008 54.6003 409.562 51.4336 409.562 48.168C409.562 45.4961 409.909 42.8242 410.601 40.1523C411.393 37.4805 412.581 35.2539 414.164 33.4727C416.737 30.5039 420.052 28.7721 424.109 28.2773C428.167 27.6836 431.828 27.9805 435.094 29.168C438.854 30.6523 441.625 33.2253 443.406 36.8867C445.088 40.1523 445.93 43.9622 445.93 48.3164C445.93 51.4831 445.583 54.2044 444.89 56.4805C444.198 58.7565 443.307 60.6862 442.219 62.2695C439.844 65.5352 436.825 67.5638 433.164 68.3555C429.898 69.2461 426.583 69.2956 423.219 68.5039C419.953 67.8112 417.331 66.5742 415.351 64.793ZM422.476 38.668C420.398 40.944 419.458 44.3581 419.656 48.9102C419.854 53.3633 420.695 56.4805 422.18 58.2617C422.773 59.0534 423.812 59.7461 425.297 60.3398C426.781 60.8346 428.265 60.8841 429.75 60.4883C431.333 59.9935 432.719 58.8555 433.906 57.0742C435.094 55.293 435.737 52.4232 435.836 48.4648C435.836 44.9023 435.242 42.2305 434.055 40.4492C432.966 38.668 431.68 37.5299 430.195 37.0352C428.711 36.5404 427.226 36.5404 425.742 37.0352C424.258 37.431 423.169 37.9753 422.476 38.668ZM447.562 68.3555V49.207C447.562 45.3477 448.107 42.1315 449.195 39.5586C450.383 36.8867 451.966 34.7591 453.945 33.1758C455.825 31.6914 458.002 30.6029 460.476 29.9102C463.049 29.2174 465.672 28.8711 468.344 28.8711C468.542 28.8711 468.789 28.8711 469.086 28.8711C469.383 28.8711 469.63 28.8711 469.828 28.8711V39.4102H466.414C463.544 39.4102 461.417 40.1029 460.031 41.4883C458.646 42.8737 457.953 45.0508 457.953 48.0195V68.3555H447.562ZM476.508 82.3086V74.1445H479.328C481.307 74.1445 482.841 73.6497 483.93 72.6602C485.117 71.7695 485.364 70.2852 484.672 68.207L470.867 28.8711H482.297L490.312 56.7773L497.289 32.4336C497.883 30.0586 499.466 28.8711 502.039 28.8711H509.164L494.023 73.8477C492.836 77.1133 491.351 79.4388 489.57 80.8242C487.789 82.0117 484.87 82.6055 480.812 82.6055C480.515 82.6055 480.169 82.6055 479.773 82.6055C479.377 82.6055 479.031 82.6055 478.734 82.6055C478.437 82.5065 478.042 82.4076 477.547 82.3086C477.151 82.3086 476.805 82.3086 476.508 82.3086Z" fill="white"/>
<defs>
<filter id="filter0_f_5246_9093" x="209.332" y="0.808594" width="314.832" height="96.7969" filterUnits="userSpaceOnUse" color-interpolation-filters="sRGB">
<feFlood flood-opacity="0" result="BackgroundImageFix"/>
<feBlend mode="normal" in="SourceGraphic" in2="BackgroundImageFix" result="shape"/>
<feGaussianBlur stdDeviation="7.5" result="effect1_foregroundBlur_5246_9093"/>
</filter>
<filter id="filter1_f_5246_9093" x="209.332" y="0.808594" width="314.832" height="96.7969" filterUnits="userSpaceOnUse" color-interpolation-filters="sRGB">
<feFlood flood-opacity="0" result="BackgroundImageFix"/>
<feBlend mode="normal" in="SourceGraphic" in2="BackgroundImageFix" result="shape"/>
<feGaussianBlur stdDeviation="7.5" result="effect1_foregroundBlur_5246_9093"/>
</filter>
<linearGradient id="paint0_linear_5246_9093" x1="258.813" y1="58.2994" x2="747.115" y2="57.8361" gradientUnits="userSpaceOnUse">
<stop offset="0.151007" stop-color="#14C7FF"/>
<stop offset="0.20204" stop-color="#C75BF4"/>
<stop offset="0.265125" stop-color="#F67258"/>
<stop offset="0.291985" stop-color="#F65745"/>
<stop offset="0.305411" stop-color="#DF6557"/>
<stop offset="0.359117" stop-color="#F83DF1"/>
<stop offset="0.451757" stop-color="#14C7FF"/>
</linearGradient>
<linearGradient id="paint1_linear_5246_9093" x1="258.813" y1="58.2994" x2="747.115" y2="57.8361" gradientUnits="userSpaceOnUse">
<stop offset="0.151007" stop-color="#14C7FF"/>
<stop offset="0.20204" stop-color="#C75BF4"/>
<stop offset="0.265125" stop-color="#F67258"/>
<stop offset="0.291985" stop-color="#F65745"/>
<stop offset="0.305411" stop-color="#DF6557"/>
<stop offset="0.359117" stop-color="#F83DF1"/>
<stop offset="0.451757" stop-color="#14C7FF"/>
</linearGradient>
</defs>
</svg>
