<svg width="100%" height="100%" viewBox="0 0 263 64" fill="none" xmlns="http://www.w3.org/2000/svg">
    <mask id="mask0_5246_10751" style="mask-type:alpha" maskUnits="userSpaceOnUse" x="0" y="0" width="263" height="64">
        <path
            d="M13.8817 7.36212H7.00927V10.9928H0.237305V64H56.1211V10.9928H49.3491V7.36212H42.4767C39.5428 2.60195 34.499 0 28.1892 0C21.8594 0 16.8356 2.62212 13.8817 7.36212ZM15.63 10.3271L16.0519 9.56067C19.026 4.11472 24.2908 2.96502 28.1892 2.96502C32.0876 2.96502 37.3525 4.11472 40.3265 9.56067L40.7485 10.3271H46.3952V13.9578H53.1671V61.035H3.21134V13.9578H9.9833V10.3271H15.63Z"
            fill="#8F001A" />
        <path d="M50.0324 53.088H6.30603V54.7218H50.0324V53.088Z" fill="#8F001A" />
        <path d="M51.3384 55.9316H5.03989V57.5654H51.3384V55.9316Z" fill="#8F001A" />
        <path
            d="M27.6665 17.2855L5.80333 25.1317L6.80807 27.9152C6.80807 27.9152 27.2043 20.5934 28.1689 20.2505C29.1334 20.5934 49.5297 27.9152 49.5297 27.9152L50.5345 25.1317L28.1689 17.104"
            fill="#8F001A" />
        <path
            d="M47.0179 48.4887L46.616 31.8685C46.7567 31.929 46.8974 31.9693 47.0581 31.9693C47.5605 31.9693 47.9825 31.5659 47.9825 31.0415C47.9825 30.7994 47.882 30.5574 47.7213 30.396H48.4648V28.7622H7.91337V30.396H8.65688C8.49612 30.5574 8.39565 30.7994 8.39565 31.0415C8.39565 31.5457 8.81764 31.9693 9.32001 31.9693C9.46067 31.9693 9.60134 31.929 9.742 31.8685L9.34011 48.4685H7.8129V51.1915H48.5853V48.4685M17.8 48.4887H13.1179L12.716 31.8886C12.8366 31.9491 12.9773 31.9895 13.138 31.9895C13.6404 31.9895 14.0624 31.5861 14.0624 31.0616C14.0624 30.8196 13.9619 30.5776 13.8012 30.4162H17.1168C16.956 30.5776 16.8556 30.8196 16.8556 31.0616C16.8556 31.5659 17.2776 31.9895 17.7799 31.9895C17.9407 31.9895 18.0814 31.9491 18.2019 31.8886L17.8 48.4887ZM26.2801 48.4887H21.598L21.1961 31.8886C21.3166 31.9491 21.4573 31.9895 21.6181 31.9895C22.1405 31.9895 22.5424 31.5861 22.5424 31.0616C22.5424 30.8196 22.4419 30.5776 22.2812 30.4162H25.6169C25.4562 30.5776 25.3557 30.8196 25.3557 31.0616C25.3557 31.5659 25.7777 31.9895 26.2801 31.9895C26.4207 31.9895 26.5614 31.9491 26.7021 31.8886L26.2801 48.4887ZM34.7601 48.4887H30.078L29.6761 31.8886C29.7967 31.9491 29.9373 31.9693 30.078 31.9693C30.5804 31.9693 31.0023 31.5659 31.0023 31.0415C31.0023 30.7994 30.9019 30.5574 30.7411 30.396H34.0769C33.9161 30.5574 33.8156 30.7994 33.8156 31.0415C33.8156 31.5457 34.2376 31.9693 34.74 31.9693C34.9008 31.9693 35.0414 31.929 35.162 31.8685L34.7601 48.4887ZM43.22 48.4887H38.5379L38.136 31.8886C38.2566 31.9491 38.3973 31.9895 38.5379 31.9895C39.0604 31.9895 39.4623 31.5861 39.4623 31.0616C39.4623 30.8196 39.3618 30.5776 39.201 30.4162H42.5368C42.376 30.5776 42.2756 30.8196 42.2756 31.0616C42.2756 31.5659 42.6975 31.9895 43.1999 31.9895C43.3406 31.9895 43.4812 31.9491 43.6018 31.8886L43.22 48.4887Z"
            fill="#8F001A" />
        <path
            d="M89.8564 52.925C89.6949 51.7276 89.5981 50.239 89.5981 47.8118C87.6604 51.1774 84.4309 53.1515 80.7493 53.1515C77.5844 53.1515 75.13 51.6305 74.1288 49.0092C73.6444 47.6824 73.4184 45.6436 73.4184 41.3394V33.1518C73.4184 30.5952 73.2246 29.5273 72.6756 29.1066C72.3849 28.8153 71.9328 28.7183 70.9963 28.6535H70.092V27.5532L77.8105 27.0678C77.5521 31.6632 77.5198 32.8606 77.5198 36.291V40.5951C77.5198 45.6112 77.6167 46.938 78.2303 48.6532C78.8116 50.4979 80.2326 51.4363 82.2671 51.4363C85.0122 51.4363 87.4343 49.6564 88.7261 46.6468C89.4689 44.964 89.6303 43.8636 89.6303 40.7893V33.1518C89.6303 30.5305 89.4689 29.592 88.8876 29.139C88.5969 28.8477 88.0802 28.6859 87.2082 28.6535H86.304V27.5532L94.0224 27.0678C93.861 30.7894 93.7641 34.058 93.7641 36.291V45.6436C93.7641 50.5949 94.2162 51.5011 96.7998 51.5011H97.155V52.6014"
            fill="#8F001A" />
        <path
            d="M109.621 21.631C112.592 17.9094 116.919 16 122.313 16C127.738 16 131.969 17.877 134.972 21.631C137.717 25.0937 139.106 29.3979 139.106 34.6081C139.106 39.8184 137.717 44.1549 134.972 47.5206C131.904 51.3393 127.706 53.2163 122.313 53.2163C116.952 53.2163 112.56 51.2422 109.621 47.5206C106.876 44.0578 105.487 39.7537 105.487 34.6081C105.487 29.3979 106.843 25.1584 109.621 21.631ZM113.206 46.485C115.208 50.0124 118.34 51.8894 122.313 51.8894C126.285 51.8894 129.418 50.0124 131.42 46.485C133.196 43.2488 134.1 39.3977 134.1 34.6081C134.1 29.8186 133.196 25.9351 131.42 22.7313C129.418 19.1715 126.285 17.3268 122.313 17.3268C118.34 17.3268 115.208 19.2038 113.206 22.7313C111.429 25.9998 110.525 29.9156 110.525 34.6081C110.525 39.3006 111.429 43.1517 113.206 46.485Z"
            fill="#8F001A" />
        <path
            d="M150.409 45.5465C150.409 48.4591 150.571 49.7535 151.055 50.4331C151.539 51.1127 152.347 51.4687 153.477 51.4687C154.575 51.4687 155.512 51.2098 156.61 50.5626L157.062 51.8571C155.415 52.6985 153.832 53.0868 152.056 53.0868C149.634 53.0868 147.793 52.2454 146.921 50.6597C146.372 49.6564 146.211 48.5885 146.211 44.8992V28.8477H143.078V27.715C146.017 27.4561 147.503 25.5468 148.245 20.8867L150.538 20.2394C150.441 22.3753 150.377 24.2523 150.377 27.5209H156.351V28.8477H150.377"
            fill="#8F001A" />
        <path
            d="M166.783 45.5465C166.783 48.4591 166.944 49.7535 167.428 50.4331C167.913 51.1127 168.72 51.4687 169.851 51.4687C170.949 51.4687 171.885 51.2098 172.983 50.5626L173.435 51.8571C171.788 52.6985 170.206 53.0868 168.43 53.0868C166.008 53.0868 164.167 52.2454 163.295 50.6597C162.746 49.6564 162.584 48.5885 162.584 44.8992V28.8477H159.452V27.715C162.391 27.4561 163.876 25.5468 164.619 20.8867L166.912 20.2394C166.815 22.3753 166.75 24.2523 166.75 27.5209H172.725V28.8477H166.783"
            fill="#8F001A" />
        <path
            d="M200.014 52.4719C198.076 52.7632 195.88 52.9574 194.879 52.9574C193.394 52.9574 192.974 52.1483 192.78 48.8474C191.973 49.7535 191.327 50.2713 190.358 50.9833C188.162 52.569 186.418 53.1192 183.899 53.1192C181.703 53.1192 180.056 52.6337 178.829 51.5982C177.472 50.4008 176.633 48.4267 176.633 46.3555C176.633 42.4397 179.119 39.9155 183.931 38.8152C186.515 38.2327 189.131 37.8767 192.78 37.6178V34.5111C192.78 32.2457 192.586 31.0483 192.069 30.0127C191.424 28.7183 190.035 28.071 188 28.071C184.706 28.071 183.027 29.5597 182.833 32.6341C182.769 33.6696 182.672 34.0256 182.284 34.3169C181.929 34.5758 181.283 34.7052 180.54 34.7052C178.861 34.7052 178.118 34.2522 178.118 33.2166C178.118 31.4367 179.41 29.6568 181.509 28.4594C183.414 27.4238 185.837 26.8736 188.775 26.8736C191.973 26.8736 194.233 27.6179 195.428 29.0419C196.429 30.2716 196.881 31.9221 196.881 34.6405C196.881 34.8023 196.881 34.8023 196.784 39.6566L196.72 44.3491L196.655 46.6144C196.655 48.6856 196.914 50.4655 197.204 50.8862C197.495 51.2745 198.109 51.4364 199.982 51.4364M192.78 38.7505C188.356 39.1388 186.418 39.5595 184.416 40.5304C182.22 41.566 181.089 43.54 181.089 46.1614C181.089 49.2681 182.769 51.404 185.255 51.404C187.774 51.404 190.39 49.9153 191.617 47.7795C192.425 46.3879 192.78 44.3167 192.78 41.0482V38.7505Z"
            fill="#8F001A" />
        <path
            d="M212.415 52.7632H209.832L203.663 32.2133C202.824 29.3979 202.21 28.783 199.788 28.6535V27.5532H210.833V28.6535C208.443 28.7506 207.506 29.236 207.506 30.4982C207.506 30.8865 207.668 31.6308 207.958 32.6664L212.447 48.2325L219.003 28.2328H221.038L227.368 48.2325L231.695 33.6696C232.083 32.4399 232.276 31.5014 232.276 30.7894C232.276 29.948 231.76 29.3008 230.888 29.0095C230.274 28.8153 229.951 28.7506 228.659 28.6535V27.5532H238.412V28.6535C235.667 28.8153 234.731 29.7538 233.536 33.5402L227.497 52.7632H224.978L218.777 33.7344"
            fill="#8F001A" />
        <path
            d="M262.052 52.4719C260.115 52.7632 257.918 52.9574 256.917 52.9574C255.432 52.9574 255.012 52.1483 254.818 48.8474C254.011 49.7535 253.365 50.2713 252.396 50.9833C250.2 52.569 248.456 53.1192 245.937 53.1192C243.741 53.1192 242.126 52.6337 240.867 51.5982C239.51 50.4008 238.671 48.4267 238.671 46.3555C238.671 42.4397 241.158 39.9155 245.969 38.8152C248.553 38.2327 251.201 37.8767 254.818 37.6178V34.5111C254.818 32.2457 254.624 31.0483 254.108 30.0127C253.462 28.7183 252.073 28.071 250.039 28.071C246.744 28.071 245.065 29.5597 244.871 32.6341C244.807 33.6696 244.71 34.0256 244.322 34.3169C243.967 34.5758 243.321 34.7052 242.578 34.7052C240.899 34.7052 240.124 34.2522 240.124 33.2166C240.124 31.4367 241.416 29.6568 243.515 28.4594C245.388 27.4238 247.843 26.8736 250.781 26.8736C253.979 26.8736 256.239 27.6179 257.434 29.0419C258.435 30.2716 258.887 31.9221 258.887 34.6405C258.887 34.8023 258.887 34.8023 258.79 39.6566L258.726 44.3491L258.661 46.6144C258.661 48.6856 258.92 50.4655 259.21 50.8862C259.501 51.2745 260.115 51.4364 261.988 51.4364M254.851 38.7505C250.426 39.1388 248.488 39.5595 246.486 40.5304C244.29 41.566 243.16 43.54 243.16 46.1614C243.16 49.2681 244.839 51.404 247.326 51.404C249.877 51.404 252.461 49.9153 253.688 47.7795C254.495 46.3879 254.818 44.3167 254.818 41.0482V38.7505H254.851Z"
            fill="#8F001A" />
    </mask>
    <g mask="url(#mask0_5246_10751)">
        <rect x="-32" y="-31" width="324" height="119" fill="white" />
    </g>
</svg>